<svg version="1.1" xmlns="http://www.w3.org/2000/svg" xmlns:xlink="http://www.w3.org/1999/xlink" width="41.31041" height="40.79126" viewBox="0,0,41.31041,40.79126"><defs><radialGradient cx="243.33501" cy="190.36394" r="1.44172" gradientUnits="userSpaceOnUse" id="color-1"><stop offset="0" stop-color="#ffb5b5"/><stop offset="1" stop-color="#ff0000"/></radialGradient><radialGradient cx="243.52732" cy="167.88939" r="1.44172" gradientUnits="userSpaceOnUse" id="color-2"><stop offset="0" stop-color="#ffb5b5"/><stop offset="1" stop-color="#ff0000"/></radialGradient><radialGradient cx="243.52875" cy="190.61756" r="8.90037" gradientUnits="userSpaceOnUse" id="color-3"><stop offset="0" stop-color="#ff0000"/><stop offset="1" stop-color="#ff0000" stop-opacity="0"/></radialGradient><radialGradient cx="243.52875" cy="190.61756" r="8.90037" gradientUnits="userSpaceOnUse" id="color-4"><stop offset="0" stop-color="#ff0000"/><stop offset="1" stop-color="#ff0000" stop-opacity="0"/></radialGradient><radialGradient cx="243.52875" cy="190.61756" r="6.31849" gradientUnits="userSpaceOnUse" id="color-5"><stop offset="0" stop-color="#ff0000"/><stop offset="1" stop-color="#ff0000" stop-opacity="0"/></radialGradient><radialGradient cx="243.52875" cy="190.61756" r="6.31849" gradientUnits="userSpaceOnUse" id="color-6"><stop offset="0" stop-color="#ff0000"/><stop offset="1" stop-color="#ff0000" stop-opacity="0"/></radialGradient><radialGradient cx="243.64207" cy="167.88769" r="8.90037" gradientUnits="userSpaceOnUse" id="color-7"><stop offset="0" stop-color="#ff0000"/><stop offset="1" stop-color="#ff0000" stop-opacity="0"/></radialGradient><radialGradient cx="243.64207" cy="167.88769" r="8.90037" gradientUnits="userSpaceOnUse" id="color-8"><stop offset="0" stop-color="#ff0000"/><stop offset="1" stop-color="#ff0000" stop-opacity="0"/></radialGradient><radialGradient cx="243.64207" cy="167.88769" r="6.31849" gradientUnits="userSpaceOnUse" id="color-9"><stop offset="0" stop-color="#ff0000"/><stop offset="1" stop-color="#ff0000" stop-opacity="0"/></radialGradient><radialGradient cx="243.64207" cy="167.88769" r="6.31849" gradientUnits="userSpaceOnUse" id="color-10"><stop offset="0" stop-color="#ff0000"/><stop offset="1" stop-color="#ff0000" stop-opacity="0"/></radialGradient></defs><g transform="translate(-218.74644,-158.99648)"><g data-paper-data="{&quot;isPaintingLayer&quot;:true}" fill-rule="nonzero" stroke-linejoin="miter" stroke-miterlimit="10" stroke-dasharray="" stroke-dashoffset="0" style="mix-blend-mode: normal"><path d="M252.50053,186.18101v-12.54948h4.35295v12.54948z" fill="#522808" stroke="#000000" stroke-width="1.95" stroke-linecap="butt"/><path d="M248.00344,184.48989v5.57347h-4.35295v-5.57347z" data-paper-data="{&quot;index&quot;:null}" fill="#522808" stroke="#000000" stroke-width="1.95" stroke-linecap="butt"/><path d="M253.88206,182.86479v4.36645h-6.94724v-4.36645z" data-paper-data="{&quot;index&quot;:null}" fill="#522808" stroke="none" stroke-width="0" stroke-linecap="butt"/><path d="M247.10951,182.60005v1.65174h-0.84281v-1.65174z" data-paper-data="{&quot;index&quot;:null}" fill="#000000" stroke="#000000" stroke-width="1.5" stroke-linecap="butt"/><path d="M254.27271,185.93468v2.01913h-0.71639v-2.01913z" data-paper-data="{&quot;index&quot;:null}" fill="#000000" stroke="#000000" stroke-width="1.5" stroke-linecap="butt"/><path d="M244.77673,188.92222v2.88344h-2.88344v-2.88344z" data-paper-data="{&quot;index&quot;:null}" fill="url(#color-1)" stroke="#000000" stroke-width="1" stroke-linecap="butt"/><path d="M252.20579,181.54384v0.84071h-4.35671v-0.84071z" data-paper-data="{&quot;index&quot;:null}" fill="#000000" stroke="#000000" stroke-width="1.5" stroke-linecap="butt"/><path d="M253.39495,187.54451v0.84071h-4.60857v-0.84071z" data-paper-data="{&quot;index&quot;:null}" fill="#000000" stroke="#000000" stroke-width="1.5" stroke-linecap="butt"/><path d="M243.8428,173.82369v-5.57346h4.35295v5.57346z" data-paper-data="{&quot;index&quot;:null}" fill="#522808" stroke="#000000" stroke-width="1.95" stroke-linecap="butt"/><path d="M247.12713,175.44879v-4.36644h6.94724v4.36644z" data-paper-data="{&quot;index&quot;:null}" fill="#522808" stroke="none" stroke-width="0" stroke-linecap="butt"/><path d="M246.45901,175.71352v-1.65174h0.84281v1.65174z" data-paper-data="{&quot;index&quot;:null}" fill="#000000" stroke="#000000" stroke-width="1.5" stroke-linecap="butt"/><path d="M253.74863,172.3789v-2.01913h0.71639v2.01913z" data-paper-data="{&quot;index&quot;:null}" fill="#000000" stroke="#000000" stroke-width="1.5" stroke-linecap="butt"/><path d="M242.0856,169.33112v-2.88344h2.88344v2.88344z" data-paper-data="{&quot;index&quot;:null}" fill="url(#color-2)" stroke="#000000" stroke-width="1" stroke-linecap="butt"/><path d="M248.04139,176.76974v-0.84071h4.35671v0.84071z" data-paper-data="{&quot;index&quot;:null}" fill="#000000" stroke="#000000" stroke-width="1.5" stroke-linecap="butt"/><path d="M248.97869,170.76905v-0.84071h4.60857v0.84071z" data-paper-data="{&quot;index&quot;:null}" fill="#000000" stroke="#000000" stroke-width="1.5" stroke-linecap="butt"/><path d="M255.06611,182.41992v-5.35433h4.01575v5.35433z" fill="#522808" stroke="#000000" stroke-width="1.95" stroke-linecap="butt"/><path d="M253.7669,183.83726v-8.07087h2.95276v8.07087z" fill="#522808" stroke="none" stroke-width="0" stroke-linecap="butt"/><path d="M243.19956,190.57908c-6.98776,-0.02704 -23.13433,-11.81442 -23.13433,-11.81442c0,0 16.45817,-10.75479 23.50746,-10.84336" fill="none" stroke="#8a8a8a" stroke-width="1.5" stroke-linecap="round"/><g fill="none" stroke-linecap="round"><path d="M234.85857,192.62868l17.34036,-4.02224" stroke="url(#color-3)" stroke-width="1"/><path d="M245.53987,199.28774l-4.02224,-17.34036" stroke="url(#color-4)" stroke-width="1"/><path d="M240.18601,195.9794l6.68549,-10.72368" stroke="url(#color-5)" stroke-width="0.5"/><path d="M238.16691,187.27482l10.72368,6.68548" stroke="url(#color-6)" stroke-width="0.5"/></g><g fill="none" stroke-linecap="round"><path d="M235.25086,170.85489l16.78242,-5.93439" stroke="url(#color-7)" stroke-width="1"/><path d="M246.60926,176.2789l-5.93439,-16.78242" stroke="url(#color-8)" stroke-width="1"/><path d="M246.36484,162.18595l-5.44554,11.40347" stroke="url(#color-9)" stroke-width="0.5"/><path d="M237.94034,165.16491l11.40347,5.44554" stroke="url(#color-10)" stroke-width="0.5"/></g></g></g></svg>