<svg version="1.1" xmlns="http://www.w3.org/2000/svg" xmlns:xlink="http://www.w3.org/1999/xlink" width="18.34036" height="43.92559" viewBox="0,0,18.34036,43.92559"><defs><radialGradient cx="249.77287" cy="167.13166" r="1.44172" gradientUnits="userSpaceOnUse" id="color-1"><stop offset="0" stop-color="#ffb1b1"/><stop offset="1" stop-color="#ff0000"/></radialGradient><radialGradient cx="249.83866" cy="192.78955" r="1.44172" gradientUnits="userSpaceOnUse" id="color-2"><stop offset="0" stop-color="#ffb0b0"/><stop offset="1" stop-color="#ff0000"/></radialGradient><radialGradient cx="249.6925" cy="167.06679" r="8.90037" gradientUnits="userSpaceOnUse" id="color-3"><stop offset="0" stop-color="#ff0000"/><stop offset="1" stop-color="#ff0000" stop-opacity="0"/></radialGradient><radialGradient cx="249.6925" cy="167.06679" r="8.90037" gradientUnits="userSpaceOnUse" id="color-4"><stop offset="0" stop-color="#ff0000"/><stop offset="1" stop-color="#ff0000" stop-opacity="0"/></radialGradient><radialGradient cx="249.6925" cy="167.06679" r="6.31849" gradientUnits="userSpaceOnUse" id="color-5"><stop offset="0" stop-color="#ff0000"/><stop offset="1" stop-color="#ff0000" stop-opacity="0"/></radialGradient><radialGradient cx="249.6925" cy="167.06679" r="6.31849" gradientUnits="userSpaceOnUse" id="color-6"><stop offset="0" stop-color="#ff0000"/><stop offset="1" stop-color="#ff0000" stop-opacity="0"/></radialGradient><radialGradient cx="249.87768" cy="192.93099" r="8.90037" gradientUnits="userSpaceOnUse" id="color-7"><stop offset="0" stop-color="#ff0000"/><stop offset="1" stop-color="#ff0000" stop-opacity="0"/></radialGradient><radialGradient cx="249.87768" cy="192.93099" r="8.90037" gradientUnits="userSpaceOnUse" id="color-8"><stop offset="0" stop-color="#ff0000"/><stop offset="1" stop-color="#ff0000" stop-opacity="0"/></radialGradient><radialGradient cx="249.87768" cy="192.93099" r="6.31849" gradientUnits="userSpaceOnUse" id="color-9"><stop offset="0" stop-color="#ff0000"/><stop offset="1" stop-color="#ff0000" stop-opacity="0"/></radialGradient><radialGradient cx="249.87768" cy="192.93099" r="6.31849" gradientUnits="userSpaceOnUse" id="color-10"><stop offset="0" stop-color="#ff0000"/><stop offset="1" stop-color="#ff0000" stop-opacity="0"/></radialGradient></defs><g transform="translate(-240.70749,-158.17557)"><g data-paper-data="{&quot;isPaintingLayer&quot;:true}" fill-rule="nonzero" stroke-linejoin="miter" stroke-miterlimit="10" stroke-dasharray="" stroke-dashoffset="0" style="mix-blend-mode: normal"><path d="M252.50053,186.181v-12.54948h4.35295v12.54948z" fill="#522808" stroke="#000000" stroke-width="1.95" stroke-linecap="butt"/><path d="M250.23744,173.70309v-6.15039h4.35295v6.15039z" fill="#522808" stroke="#000000" stroke-width="1.95" stroke-linecap="butt"/><path d="M250.31547,192.44732v-6.22843h4.35295v6.22843z" fill="#522808" stroke="#000000" stroke-width="1.95" stroke-linecap="butt"/><path d="M252.32422,177.09975v-6.1283h2.2998v6.1283z" fill="#522808" stroke="none" stroke-width="0" stroke-linecap="butt"/><path d="M252.36766,189.84368v-6.64335h2.19444v6.64335z" fill="#522808" stroke="none" stroke-width="0" stroke-linecap="butt"/><path d="M250.89124,177.38391v-2.94982h0.84281v2.94982z" fill="#000000" stroke="none" stroke-width="0" stroke-linecap="butt"/><path d="M250.97552,185.76983v-2.8234h0.6321v2.8234z" fill="#000000" stroke="none" stroke-width="0" stroke-linecap="butt"/><path d="M255.48454,173.16988v-3.41336h0.71639v3.41336z" fill="#000000" stroke="none" stroke-width="0" stroke-linecap="butt"/><path d="M255.35812,190.48955v-3.53979h1.17993v3.53979z" fill="#000000" stroke="none" stroke-width="0" stroke-linecap="butt"/><path d="M248.33115,168.57338v-2.88344h2.88344v2.88344z" fill="url(#color-1)" stroke="#000000" stroke-width="1" stroke-linecap="butt"/><path d="M248.39693,194.23127v-2.88345h2.88344v2.88345z" fill="url(#color-2)" stroke="#000000" stroke-width="1" stroke-linecap="butt"/><path d="M249.69775,167.17502v25.64286" fill="none" stroke="#8a8a8a" stroke-width="1.5" stroke-linecap="round"/><g fill="none" stroke-linecap="round"><path d="M241.30129,170.03399l16.78242,-5.93439" stroke="url(#color-3)" stroke-width="1"/><path d="M252.65969,175.458l-5.93439,-16.78242" stroke="url(#color-4)" stroke-width="1"/><path d="M246.96973,172.76853l5.44554,-11.40347" stroke="url(#color-5)" stroke-width="0.5"/><path d="M255.39424,169.78956l-11.40347,-5.44554" stroke="url(#color-6)" stroke-width="0.5"/></g><g fill="none" stroke-linecap="round"><path d="M241.2075,194.94211l17.34036,-4.02224" stroke="url(#color-7)" stroke-width="1"/><path d="M251.8888,201.60117l-4.02224,-17.34036" stroke="url(#color-8)" stroke-width="1"/><path d="M246.53494,198.29283l6.68549,-10.72368" stroke="url(#color-9)" stroke-width="0.5"/><path d="M255.23952,196.27373l-10.72368,-6.68548" stroke="url(#color-10)" stroke-width="0.5"/></g></g></g></svg>