<svg version="1.1" xmlns="http://www.w3.org/2000/svg" xmlns:xlink="http://www.w3.org/1999/xlink" width="18.34036" height="43.92559" viewBox="0,0,18.34036,43.92559"><defs><radialGradient cx="249.77286" cy="167.13165" r="1.44172" gradientUnits="userSpaceOnUse" id="color-1"><stop offset="0" stop-color="#b5bfff"/><stop offset="1" stop-color="#0d2cff"/></radialGradient><radialGradient cx="249.83865" cy="192.78954" r="1.44172" gradientUnits="userSpaceOnUse" id="color-2"><stop offset="0" stop-color="#afbaff"/><stop offset="1" stop-color="#0d2cff"/></radialGradient><radialGradient cx="249.69249" cy="167.06678" r="8.90037" gradientUnits="userSpaceOnUse" id="color-3"><stop offset="0" stop-color="#0022ff"/><stop offset="1" stop-color="#0022ff" stop-opacity="0"/></radialGradient><radialGradient cx="249.69249" cy="167.06678" r="8.90037" gradientUnits="userSpaceOnUse" id="color-4"><stop offset="0" stop-color="#0022ff"/><stop offset="1" stop-color="#0022ff" stop-opacity="0"/></radialGradient><radialGradient cx="249.69249" cy="167.06678" r="6.31849" gradientUnits="userSpaceOnUse" id="color-5"><stop offset="0" stop-color="#0022ff"/><stop offset="1" stop-color="#0022ff" stop-opacity="0"/></radialGradient><radialGradient cx="249.69249" cy="167.06678" r="6.31849" gradientUnits="userSpaceOnUse" id="color-6"><stop offset="0" stop-color="#0022ff"/><stop offset="1" stop-color="#0022ff" stop-opacity="0"/></radialGradient><radialGradient cx="249.87767" cy="192.93098" r="8.90037" gradientUnits="userSpaceOnUse" id="color-7"><stop offset="0" stop-color="#0022ff"/><stop offset="1" stop-color="#0022ff" stop-opacity="0"/></radialGradient><radialGradient cx="249.87767" cy="192.93098" r="8.90037" gradientUnits="userSpaceOnUse" id="color-8"><stop offset="0" stop-color="#0022ff"/><stop offset="1" stop-color="#0022ff" stop-opacity="0"/></radialGradient><radialGradient cx="249.87767" cy="192.93098" r="6.31849" gradientUnits="userSpaceOnUse" id="color-9"><stop offset="0" stop-color="#0022ff"/><stop offset="1" stop-color="#0022ff" stop-opacity="0"/></radialGradient><radialGradient cx="249.87767" cy="192.93098" r="6.31849" gradientUnits="userSpaceOnUse" id="color-10"><stop offset="0" stop-color="#0022ff"/><stop offset="1" stop-color="#0022ff" stop-opacity="0"/></radialGradient></defs><g transform="translate(-240.70749,-158.17557)"><g data-paper-data="{&quot;isPaintingLayer&quot;:true}" fill-rule="nonzero" stroke-linejoin="miter" stroke-miterlimit="10" stroke-dasharray="" stroke-dashoffset="0" style="mix-blend-mode: normal"><path d="M252.50052,186.18099v-12.54948h4.35295v12.54948z" fill="#522808" stroke="#000000" stroke-width="1.95" stroke-linecap="butt"/><path d="M250.23743,173.70308v-6.15039h4.35295v6.15039z" fill="#522808" stroke="#000000" stroke-width="1.95" stroke-linecap="butt"/><path d="M250.31546,192.44731v-6.22843h4.35295v6.22843z" fill="#522808" stroke="#000000" stroke-width="1.95" stroke-linecap="butt"/><path d="M252.32421,177.09974v-6.1283h2.2998v6.1283z" fill="#522808" stroke="none" stroke-width="0" stroke-linecap="butt"/><path d="M252.36765,189.84367v-6.64335h2.19444v6.64335z" fill="#522808" stroke="none" stroke-width="0" stroke-linecap="butt"/><path d="M250.89123,177.3839v-2.94982h0.84281v2.94982z" fill="#000000" stroke="none" stroke-width="0" stroke-linecap="butt"/><path d="M250.97551,185.76982v-2.8234h0.6321v2.8234z" fill="#000000" stroke="none" stroke-width="0" stroke-linecap="butt"/><path d="M255.48453,173.16987v-3.41336h0.71639v3.41336z" fill="#000000" stroke="none" stroke-width="0" stroke-linecap="butt"/><path d="M255.35811,190.48954v-3.53979h1.17993v3.53979z" fill="#000000" stroke="none" stroke-width="0" stroke-linecap="butt"/><path d="M248.33114,168.57337v-2.88344h2.88344v2.88344z" fill="url(#color-1)" stroke="#000000" stroke-width="1" stroke-linecap="butt"/><path d="M248.39692,194.23126v-2.88345h2.88344v2.88345z" fill="url(#color-2)" stroke="#000000" stroke-width="1" stroke-linecap="butt"/><g fill="none" stroke-linecap="round"><path d="M249.69774,167.17501v25.64286" stroke="#8a8a8a" stroke-width="1.5"/><g><path d="M241.30128,170.03398l16.78242,-5.93439" stroke="url(#color-3)" stroke-width="1"/><path d="M252.65968,175.45799l-5.93439,-16.78242" stroke="url(#color-4)" stroke-width="1"/><path d="M246.96972,172.76852l5.44554,-11.40347" stroke="url(#color-5)" stroke-width="0.5"/><path d="M255.39423,169.78955l-11.40347,-5.44554" stroke="url(#color-6)" stroke-width="0.5"/></g><g><path d="M241.20749,194.9421l17.34036,-4.02224" stroke="url(#color-7)" stroke-width="1"/><path d="M251.88879,201.60116l-4.02224,-17.34036" stroke="url(#color-8)" stroke-width="1"/><path d="M246.53493,198.29282l6.68549,-10.72368" stroke="url(#color-9)" stroke-width="0.5"/><path d="M244.51583,189.58824l10.72368,6.68548" stroke="url(#color-10)" stroke-width="0.5"/></g></g></g></g></svg>