<svg version="1.1" xmlns="http://www.w3.org/2000/svg" xmlns:xlink="http://www.w3.org/1999/xlink" width="683.14365" height="444" viewBox="0,0,683.14365,444"><defs><radialGradient cx="41.58663" cy="198.3844" r="102.12236" gradientUnits="userSpaceOnUse" id="color-1"><stop offset="0" stop-color="#00b9bf"/><stop offset="1" stop-color="#00b9bf" stop-opacity="0"/></radialGradient><radialGradient cx="42.74594" cy="200.37881" r="162.92805" gradientUnits="userSpaceOnUse" id="color-2"><stop offset="0" stop-color="#00f6fe"/><stop offset="1" stop-color="#00f6fe" stop-opacity="0"/></radialGradient><radialGradient cx="42.74594" cy="200.37881" r="162.92805" gradientUnits="userSpaceOnUse" id="color-3"><stop offset="0" stop-color="#00f6fe"/><stop offset="1" stop-color="#00f6fe" stop-opacity="0"/></radialGradient><radialGradient cx="42.74594" cy="200.37881" r="100.23842" gradientUnits="userSpaceOnUse" id="color-4"><stop offset="0" stop-color="#00f6fe"/><stop offset="1" stop-color="#00f6fe" stop-opacity="0"/></radialGradient><radialGradient cx="42.74594" cy="200.37881" r="100.23842" gradientUnits="userSpaceOnUse" id="color-5"><stop offset="0" stop-color="#00f6fe"/><stop offset="1" stop-color="#00f6fe" stop-opacity="0"/></radialGradient></defs><g transform="translate(111.64365,42)"><g data-paper-data="{&quot;isPaintingLayer&quot;:true}" fill-rule="nonzero" stroke-linejoin="miter" stroke-miterlimit="10" stroke-dasharray="" stroke-dashoffset="0" style="mix-blend-mode: normal"><path d="M-91.5,402v-444h663v444z" fill="#005c78" stroke="none" stroke-width="0" stroke-linecap="butt"/><path d="M-60.4619,194.50176c2.14432,-56.35985 49.57132,-100.31022 105.93116,-98.1659c56.35985,2.14432 100.31022,49.57132 98.1659,105.93116c-2.14432,56.35985 -49.57132,100.31022 -105.93116,98.1659c-56.35985,-2.14432 -100.31022,-49.57132 -98.1659,-105.93116z" fill="url(#color-1)" stroke="none" stroke-width="0" stroke-linecap="butt"/><path d="M-110.39365,256.00086l306.27919,-111.2441" fill="none" stroke="url(#color-2)" stroke-width="2.5" stroke-linecap="round"/><path d="M98.368,353.51841l-111.2441,-306.27919" fill="none" stroke="url(#color-3)" stroke-width="2.5" stroke-linecap="round"/><path d="M85.16941,109.56036l-84.84694,181.63691" fill="none" stroke="url(#color-4)" stroke-width="2.5" stroke-linecap="round"/><path d="M133.5644,242.80228l-181.63691,-84.84694" fill="none" stroke="url(#color-5)" stroke-width="2.5" stroke-linecap="round"/></g></g></svg>