<svg version="1.1" xmlns="http://www.w3.org/2000/svg" xmlns:xlink="http://www.w3.org/1999/xlink" width="663" height="449.33889" viewBox="0,0,663,449.33889"><defs><radialGradient cx="240.5" cy="145" r="131" gradientUnits="userSpaceOnUse" id="color-1"><stop offset="0" stop-color="#00b9bf"/><stop offset="1" stop-color="#00b9bf" stop-opacity="0"/></radialGradient><radialGradient cx="242.08333" cy="147.5" r="209" gradientUnits="userSpaceOnUse" id="color-2"><stop offset="0" stop-color="#00f6fe"/><stop offset="1" stop-color="#00f6fe" stop-opacity="0"/></radialGradient><radialGradient cx="242.08333" cy="147.5" r="209" gradientUnits="userSpaceOnUse" id="color-3"><stop offset="0" stop-color="#00f6fe"/><stop offset="1" stop-color="#00f6fe" stop-opacity="0"/></radialGradient><radialGradient cx="242.08333" cy="147.5" r="128.58333" gradientUnits="userSpaceOnUse" id="color-4"><stop offset="0" stop-color="#00f6fe"/><stop offset="1" stop-color="#00f6fe" stop-opacity="0"/></radialGradient><radialGradient cx="242.08333" cy="147.5" r="128.58333" gradientUnits="userSpaceOnUse" id="color-5"><stop offset="0" stop-color="#00f6fe"/><stop offset="1" stop-color="#00f6fe" stop-opacity="0"/></radialGradient></defs><g transform="translate(91.5,47.33889)"><g data-paper-data="{&quot;isPaintingLayer&quot;:true}" fill-rule="nonzero" stroke-linejoin="miter" stroke-miterlimit="10" stroke-dasharray="" stroke-dashoffset="0" style="mix-blend-mode: normal"><path d="M-91.5,402v-444h663v444z" fill="#005c78" stroke="none" stroke-width="0" stroke-linecap="butt"/><path d="M109.5,145c0,-72.3493 58.6507,-131 131,-131c72.3493,0 131,58.6507 131,131c0,72.3493 -58.6507,131 -131,131c-72.3493,0 -131,-58.6507 -131,-131z" fill="url(#color-1)" stroke="none" stroke-width="0" stroke-linecap="butt"/><path d="M48.49445,226.26765l387.17777,-157.5353" fill="none" stroke="url(#color-2)" stroke-width="2.5" stroke-linecap="round"/><path d="M320.85099,341.08889l-157.5353,-387.17777" fill="none" stroke="url(#color-3)" stroke-width="2.5" stroke-linecap="round"/><path d="M192.13217,265.98441l99.90233,-236.96882" fill="none" stroke="url(#color-4)" stroke-width="2.5" stroke-linecap="round"/><path d="M360.56774,197.45116l-236.96882,-99.90233" fill="none" stroke="url(#color-5)" stroke-width="2.5" stroke-linecap="round"/></g></g></svg>